Patient4_TMGait_0pt2_01_right_02_EMG.mot
version=1
nRows=16
nColumns=33
inDegrees=no
endheader
time	1LAddLong	2LGlutMax	3LGlutMed	4LIliopsoas	5LSemiMemb	6LBicFemLong	7LRecFem	8LVastMed	9LVastLat	10LGasMed	11LTibAnt	12lTibPost	13LPeroneusLong	14LSol	15LExtDigLong	16LFlexDigLong	17RAddLong	18RGlutMax	19RGlutMed	20RIliopsoas	21RSemiMemb	22RBicFemLong	23RRecFem	24RVastMed	25RVastLat	26RGasMed	27RTibAnt	28RTibPost	29RPeroneusLong	30RSol	31RExtDigLong	32RFlexDigLong
3.86	0.02655	0.008698	0.017853	0.002899	0.09201	-0.025024	-0.015411	-0.003204	0.27741	0.005646	0.13718	-0.002899	0.016632	-0.11627	-0.29938	-0.001068	0.006256	-0.000305	-0.50842	0.019531	0.055389	-0.083771	-0.076141	0.034943	0.17212	0.027008	-0.40665	0.003357	0.71594	0.043945	-0.00473	0.003204
3.861	0.040283	0.012512	-0.009308	-0.005493	0.053711	-0.016022	0.050049	0.005035	0.26977	0.019531	0.030365	0.00824	-0.050964	-0.12375	-0.054932	-0.007019	0.022125	0.002289	-0.5864	0.080261	0.049896	-0.10635	0.10452	-0.020599	0.069122	0.016785	-0.30563	0.002136	1.1571	0.11185	-0.001068	-0.010986
3.862	0.034027	0.037842	0.030975	0	0.087738	-0.030212	0.034943	0.006256	0.051422	0.005951	0.031891	-0.00473	-0.034943	-0.12222	-0.2124	0.002594	0.013428	0.034027	-0.57541	0.001373	0.018768	-0.093689	0.15656	-0.022125	0.027924	0.011139	-0.2182	0.002136	-0.37766	0.083008	-0.004578	-0.014801
3.863	0.041046	0.033264	0.003204	0.014954	0.072937	-0.023041	-0.052032	0.005493	-0.15778	0.00412	0.023346	0.007935	-0.030518	-0.16357	-0.20248	-0.009766	0.016785	0.028229	-0.07309	-0.10376	-0.011597	-0.11643	0.11383	-0.019684	-0.000916	0.019836	-0.24292	0.006104	-0.25253	-0.11276	-0.001373	-0.011749
3.864	0.024261	0.023804	0.054169	-0.00473	0.048828	0.005341	-0.070343	-0.003204	-0.19791	-0.011292	-0.094452	-0.000153	0.06012	-0.1001	-0.083618	0.005341	0.003967	0.02243	0.26779	-0.11322	0.026398	-0.10483	-0.097198	-0.010986	-0.033112	0.021667	-0.3656	0.000763	0.45212	-0.061035	-0.004425	-0.013733
3.865	0.022583	0.020905	0.011444	0.019989	0.040283	-0.001068	-0.1384	0.004578	-0.15076	-0.034027	-0.045319	-0.006561	0.10132	-0.078888	0.19867	-0.002289	0.015106	-0.036774	0.39764	0.04425	0.034027	-0.12863	-0.13626	0.003204	-0.004272	0.009613	-0.34393	-0.000305	0.11475	0.067596	0.000305	-0.017395
3.866	0.015717	0.042572	0.033875	0.014954	0.036163	0.028534	-0.1178	0.001373	-0.088501	-0.004578	0.057983	-0.001831	0.08194	-0.092773	0.32898	0.017395	0.00885	0.025482	0.081482	0.13367	-0.034027	-0.092773	0.1149	-0.066071	-0.018311	0.00885	-0.17899	0.001984	0.087585	0.10422	0.00061	-0.015717
3.867	0.007629	0.011444	0.04364	0.001221	0.030975	0.056915	-0.040588	0.010376	-0.079498	0.009308	0.15884	0.003815	0.074463	-0.056152	0.26291	0.003815	0.007935	0.042114	0.57465	0.097198	-0.062408	-0.066833	0.1091	-0.11581	-0.081635	0.010986	0.032349	0.003204	0.31326	0.076752	-0.002136	-0.005798
3.868	-0.000763	-0.005951	0.049744	0.007477	0.012054	0.08316	-0.074158	0.008087	0.008392	0.001831	0.13763	0.003662	0.085907	0.021973	0.091553	0.003967	0.021667	-0.009918	0.13779	-0.002747	0.008545	-0.087585	0.006866	-0.057983	0.034027	0.016327	0.1033	-0.00061	0.1593	0.01709	-0.003204	-0.010986
3.869	-0.020142	-0.015106	-0.006714	0.005798	-0.02533	0.070343	-0.09079	-0.004272	0.12528	0.005493	-0.076447	-0.00885	0.030212	0.034485	0.051727	-0.003662	0.037842	-0.080719	-0.2121	-0.006409	-0.019073	-0.12634	-0.030365	-0.020599	0.16769	0.012207	0.017242	0.002747	-0.19821	0.014038	-0.001221	-0.003662
3.87	-0.025024	0.035248	-0.019226	0.006409	-0.061188	0.046387	-0.099182	-0.001221	0.24689	-0.023041	-0.24048	-0.007324	0.078583	-0.0177	-0.059509	-0.00473	0.046082	-0.016785	-0.32684	0.00885	0.02533	-0.15564	-0.056458	-0.046082	0.21515	0.005493	0.29404	0.002441	-0.38376	0.033569	0.001526	-0.011292
3.871	-0.020599	0.054779	0.057526	0.002594	-0.095367	-0.019989	-0.075531	-0.007324	0.24872	-0.007935	-0.20462	-0.004425	0.10178	-0.026093	0.2121	0.00473	0.001984	-0.05249	0.18509	-0.02182	-0.055542	-0.10223	-0.065765	-0.066986	0.1889	0.005798	0.28305	-0.005035	-0.43503	0.11261	-0.00061	-0.00412
3.872	-0.02182	0.027008	0.10208	0.00946	-0.020447	-0.043793	-0.0737	0.00061	0.22507	0.00473	-0.13001	-0.001678	0.035553	-0.05249	0.38391	0.004883	-0.012817	-0.024567	0.50095	-0.010986	-0.21957	-0.018005	-0.12344	0.016785	0.13962	0.002594	0.2301	0.003967	-0.3302	0.16586	0.001373	-0.008087
3.873	-0.01358	0.026245	0.019989	0.003815	0.008545	-0.062561	-0.043488	0.005035	0.23132	0.025024	-0.046082	0.005493	0.02533	-0.080719	-0.17609	0.001526	-0.025024	-0.013123	0.16998	0.009918	-0.13001	-0.004883	-0.065613	0.052948	0.095062	0.011902	-0.003662	0.002594	-0.11429	0.068359	-0.003357	-0.007019
3.874	-0.011902	0.037079	-0.067139	0.007324	0.0354	-0.034637	-0.04364	0.012665	0.17593	-0.013123	0.061493	0.014191	0.061951	-0.078125	-0.59326	0.007019	-0.002289	-0.038452	-0.10422	-0.056	-0.013885	-0.066528	0.07782	0.014496	-0.007172	-0.000763	-0.083923	-0.000305	-0.009766	-0.012665	-0.000916	-0.006866
3.875	-0.029297	0.037842	-0.04364	0.00946	0.018463	-0.00885	-0.060425	0.010071	0.063171	-0.011292	0.049133	-0.002289	0.057678	-0.098419	-0.38406	0.007172	-0.011749	-0.033569	0.068817	-0.029449	0.12634	-0.10544	0.13001	0.019989	-0.084686	-0.001068	0.033722	-0.001068	0.090637	0.002594	-0.001984	-0.005493
